<svg id="Layer_1" data-name="Layer 1" xmlns="http://www.w3.org/2000/svg" viewBox="0 0 63 71"><defs><style>.cls-1{fill:none;}.cls-2{fill:#a0bdff;}.cls-3{fill:#bcd0ff;}.cls-4{fill:#c6d7ff;}.cls-5{fill:#fff;}</style></defs><title>stamps</title><path class="cls-1" d="M42.51638,50.36013c-0.49527-.04421-0.99017-0.094-1.48545-0.14267C41.5262,50.26613,42.0211,50.31592,42.51638,50.36013Z"/><path class="cls-1" d="M39.61422,50.07516c-0.50122-.0535-1.00206-0.11258-1.50291-0.17091C38.61216,49.96259,39.113,50.02166,39.61422,50.07516Z"/><path class="cls-1" d="M57.07359,31.98657A145.04449,145.04449,0,0,1,16.9792,26.33625a145.01481,145.01481,0,0,0,40.08956,5.65069c0.76093,0,1.52223-.01338,2.28316-0.02526V31.96131C58.59248,31.9732,57.833,31.98657,57.07359,31.98657Z"/><path class="cls-1" d="M45.42559,50.59346c-0.48821-.03455-0.97568-0.07579-1.46352-0.1148C44.44991,50.51766,44.93738,50.5589,45.42559,50.59346Z"/><path class="cls-1" d="M56.07,51.00066c0.33328,0.00186.66618,0.00892,0.99946,0.00892,0.02489,0,.05016-0.00111.07505-0.00111l-0.07245.00074C56.73808,51.00921,56.40406,51.00252,56.07,51.00066Z"/><path class="cls-1" d="M36.71393,49.73818C36.20751,49.675,35.70183,49.607,35.19616,49.539,35.70183,49.607,36.20751,49.675,36.71393,49.73818Z"/><path class="cls-1" d="M54.17255,50.9832c-0.45329-.0078-0.9062-0.02378-1.35912-0.0353C53.26635,50.95942,53.71964,50.9754,54.17255,50.9832Z"/><path class="cls-1" d="M51.25739,50.90518c-0.47855-.01672-0.95673-0.04124-1.43529-0.06242C50.30066,50.86393,50.77884,50.88846,51.25739,50.90518Z"/><path class="cls-1" d="M48.34149,50.77551c-0.4845-.026-0.969-0.0587-1.45312-0.0888C47.3725,50.71681,47.857,50.7495,48.34149,50.77551Z"/><path class="cls-2" d="M16.92942,26.32176l0.04979,0.01449a140.80756,140.80756,0,0,0,39.48823,5.65032c0.75944,0,.67217-0.01338,1.67217-0.02526v-16.893c0-.76648.7715-1.49432,1.06316-2.15379-0.91438.01969-1.52568,0.04979-2.44042,0.04979A125.28169,125.28169,0,0,1,3.27251.97373c-4.75469,9.336.95857,21.6754,13.27312,25.25886,0.02489,0.00743.0899,0.01523,0.1148,0.02229C16.73734,26.27718,16.8525,26.29947,16.92942,26.32176Z"/><path class="cls-3" d="M36.71393,49.73818c0.46555,0.05833.93147,0.1122,1.39739,0.16608,0.50085,0.05833,1.00169.11741,1.50291,0.17091,0.47224,0.05053.94447,0.09586,1.41671,0.1423,0.49527,0.04867.99017,0.09846,1.48545,0.14267,0.48153,0.04273.96379,0.07988,1.44569,0.11852,0.48784,0.039.97531,0.08025,1.46352,0.1148,0.48747,0.03492.97494,0.06316,1.46278,0.09326,0.48413,0.03009.96862,0.06279,1.45312,0.0888,0.49341,0.02638.98683,0.04533,1.48062,0.06725,0.47855,0.02118.95673,0.0457,1.43529,0.06242,0.51868,0.01858,1.03736.029,1.556,0.04273,0.45292,0.01152.90583,0.02749,1.35912,0.0353,0.63274,0.01115,1.26512-.07177,1.89749-0.06769,0.334,0.00186.668-.0766,1.00206-0.0766h0.07245a6.90876,6.90876,0,0,0,.995.13946V31.96168c-1,.01189-0.91607.02526-1.677,0.02526a142.88844,142.88844,0,0,1-39.78648-5.65069c-0.01635-.00483.11847-0.00966,0.10175-0.01449-0.07691-.02229-0.07842-0.04458-0.15533-0.06688-0.01932-.00557-0.00224-0.01152-0.02193-0.01709-0.00594-.00186.0078-0.00334,0.00185-0.0052-0.57441-.16682-1.13824-0.337-1.71116-0.51123-3.33947,9.878,5.06521,21.58735,19.17211,23.66274,0.376,0.05313.75438,0.1044,1.13038,0.15493C35.69946,49.607,36.20751,49.675,36.71393,49.73818Z"/><path class="cls-2" d="M16.69831,26.25489L16.6214,26.2326l0.01115,0.00334Z"/><path class="cls-4" d="M58.1396,50.98877c-1,.01-0.86554.01932-1.6012,0.01969-0.02489,0,.25292.00111,0.228,0.00111-0.33328,0-.51464-0.00706-0.84792-0.00892-0.63237-.00409-1.18935-0.00632-1.82172-0.01746-0.45292-.0078-0.86832-0.02378-1.32123-0.0353-0.51868-.01375-1.01842-0.02415-1.5371-0.04273-0.47855-.01672-0.94726-0.04124-1.42582-0.06242-0.49379-.02192-0.98247-0.04087-1.47588-0.06725-0.4845-.026-0.96663-0.0587-1.45075-0.0888-0.48784-.03009-0.97413-0.05833-1.4616-0.09326-0.48821-.03455-0.97509-0.07579-1.46293-0.1148-0.4819-.03864-0.96387-0.07542-1.44539-0.11852-0.49527-.04421-0.99-0.094-1.4853-0.14267-0.47224-.04644-0.9444-0.09177-1.41664-0.1423-0.50122-.0535-1.002-0.11258-1.50287-0.17091-0.46592-.05387-0.93182-0.10775-1.39737-0.16608C36.20749,49.675,35.70182,49.607,35.19615,49.539c-0.30615-.04124-0.6123-0.078-0.91809-0.12075-0.071-.01-0.13933-0.02378-0.20992-0.03418-0.266-.03753-0.53243-0.07059-0.79808-0.1096-1.82132,10.2373,9.36782,20.75176,25.15708,20.75176,0.11332,0,.22813-0.00074.34182-0.00186,0.39644-.00372.18672-0.02043,0.58316-0.02675-0.38529-.73824-1.21252-1.57494-1.21252-2.46328V50.98877Z"/><path class="cls-4" d="M56.07,51.00066c-0.63237-.00409-1.26475-0.00632-1.89749-0.01746C54.80493,50.99434,55.43767,50.99657,56.07,51.00066Z"/><path class="cls-4" d="M55.93224,51.00846c0.73566-.00037,1.20736-0.00966,2.20736-0.01969v-0.0104C57.1396,50.98877,56.66828,51.00809,55.93224,51.00846Z"/><path class="cls-4" d="M38.11131,49.90426c-0.46592-.05387-0.93184-0.10775-1.39739-0.16608C37.17947,49.79651,37.64539,49.85039,38.11131,49.90426Z"/><path class="cls-4" d="M46.88837,50.68671c-0.48784-.03009-0.97531-0.05833-1.46278-0.09326C45.91306,50.62838,46.40053,50.65662,46.88837,50.68671Z"/><path class="cls-4" d="M43.96207,50.47865c-0.4819-.03864-0.96416-0.07579-1.44569-0.11852C42.9979,50.40323,43.48017,50.44,43.96207,50.47865Z"/><path class="cls-4" d="M52.81343,50.9479c-0.51868-.01375-1.03736-0.02415-1.556-0.04273C51.77607,50.92375,52.29475,50.93416,52.81343,50.9479Z"/><path class="cls-4" d="M41.03093,50.21746c-0.47224-.04644-0.94447-0.09177-1.41671-0.1423C40.08646,50.12569,40.5587,50.171,41.03093,50.21746Z"/><path class="cls-4" d="M49.82211,50.84276c-0.49379-.02192-0.9872-0.04087-1.48062-0.06725C48.83491,50.80189,49.32832,50.82084,49.82211,50.84276Z"/><path class="cls-4" d="M35.19616,49.539q-0.564-.07579-1.128-0.15493c0.07059,0.0104.139,0.02415,0.20992,0.03418C34.58385,49.461,34.89,49.4978,35.19616,49.539Z"/><path class="cls-5" d="M62.04192,50.92821q-0.50939.0156-1.01841,0.02749Q61.5329,50.94344,62.04192,50.92821Z"/><path class="cls-5" d="M62.39563,31.88068q-1.52149.05629-3.04371,0.08062v0.00037q1.522-.024,3.04371-0.08062V31.88068Z"/><path class="cls-5" d="M62.04192,50.92821c0.11778-.00334.23593-0.00557,0.35371-0.00966V50.91372C62.27748,50.91744,62.1597,50.9245,62.04192,50.92821Z"/><path class="cls-5" d="M58.44234,50.98877c0.71-.0078,1.11464-0.01969,1.67159-0.03307-0.55695.01338-.96156,0.01486-1.67159,0.02266v0.0104Z"/></svg>