<svg id="Layer_1" data-name="Layer 1" xmlns="http://www.w3.org/2000/svg" viewBox="0 0 120 168"><defs><style>.cls-1{fill:#ffe600;}.cls-2{fill:#333;}</style></defs><title>stamps</title><path class="cls-1" d="M113.86735,43.51131L81.81713,11.26121A15.515,15.515,0,0,0,63.50767,8.51055l-18.66223,9.961A108.6419,108.6419,0,0,0,65.16635,33.04585l-0.03806.06559a7.54823,7.54823,0,0,1,3.05206-.79526,7.75244,7.75244,0,1,1-7.353,8.23375l-0.16649.28793C50.49814,34.96187,42.374,28.85061,36.5847,22.8803L23.39611,29.91974a15.51444,15.51444,0,0,0-8.037,11.38165L0.79692,138.23562A15.51443,15.51443,0,0,0,13.834,155.88285l72.16178,10.84091a15.51419,15.51419,0,0,0,17.647-13.03713L118.205,56.7524A15.51419,15.51419,0,0,0,113.86735,43.51131Z"/><path class="cls-1" d="M53.88621,14.60352a2.50032,2.50032,0,0,0,4.6897-1.73584A36.90059,36.90059,0,0,0,50.84934,0H42.86692C46.80247,2.14209,51.0217,6.86523,53.88621,14.60352Z"/><path class="cls-1" d="M64.16526,34.77734C37.51829,19.37061,32.38743,6.85986,33.55686,1.896A4.095,4.095,0,0,1,34.541,0H28.8967q-0.11719.36694-.20752,0.75c-0.938,3.98242-1.33228,18.52148,32.97266,38.35645A2.50041,2.50041,0,0,0,64.16526,34.77734Z"/><path class="cls-2" d="M22.79287,74.7638l5.02081,0.75428,0.69015-4.594,2.31484,0.34776L29.03447,83.14837l-2.31484-.34776,0.79446-5.28831L22.49328,76.758l-0.79446,5.28831L19.384,81.69857l1.78421-11.87649L23.483,70.16984Z"/><path class="cls-2" d="M39.39625,72.56048l-1.18763,7.90543L45.913,73.53949l1.63884,0.2462L45.76759,85.66219l-2.31484-.34776,1.193-7.94116-7.71068,6.962-1.63787-.24606L37.0814,72.21272Z"/><path class="cls-2" d="M53.89414,75.886a5.18513,5.18513,0,0,1,3.85907-.84031c2.40369,0.36111,3.71506,1.81424,3.43418,3.68388a2.83152,2.83152,0,0,1-1.83724,2.29056,2.99948,2.99948,0,0,1,1.74745,3.39494C60.758,86.67584,58.56,87.85753,55.81731,87.4455a5.02237,5.02237,0,0,1-4.13221-2.91578L53.416,83.31538a3.24894,3.24894,0,0,0,2.74443,2.21452c1.60214,0.24069,2.41012-.52966,2.54389-1.42006,0.24881-1.65622-1.36594-2.06273-2.32684-2.20709l-1.06809-.16046,0.29959-1.99422L56.677,79.90853c1.19267,0.17918,2.05872-.25459,2.20322-1.21646,0.1284-.85467-0.36376-1.45693-1.485-1.62537a3.21775,3.21775,0,0,0-2.5282.586Z"/><path class="cls-2" d="M69.61361,82.23515l5.1166-4.36644,2.92035,0.43872-5.84472,4.73008,4.328,7.1866-3.06328-.4602L69.65116,83.806l-0.30769.22732-0.75964,5.05654L66.269,88.74211l1.78421-11.87649L70.368,77.21338Z"/><path class="cls-2" d="M85.24986,79.44908L84.06223,87.3545l7.70435-6.92642,1.63787,0.24606L91.62024,92.55063,89.30636,92.203l1.193-7.94116L82.78965,91.224l-1.63884-.2462L82.935,79.10132Z"/><path class="cls-2" d="M105.95577,84.599l-4.27334-.642-0.39854,2.65285,4.09564,0.61529-0.29959,1.99422L100.9843,88.604l-0.48689,3.241,4.27334,0.642-0.29959,1.99422L97.883,93.49148,99.66718,81.615l6.58818,0.98974Z"/><path class="cls-2" d="M31.7779,97.70774l2.31484,0.34776-1.48461,9.88227,4.70115,0.70625,1.48461-9.88227,2.31484,0.34776-1.48461,9.88227,1.42348,0.21385-0.70089,4.66542-2.13618-.32092,0.40129-2.6712-8.61813-1.2947Z"/><path class="cls-2" d="M53.90825,103.07162l-4.27334-.642-0.39854,2.65285,4.09564,0.61529L53.03243,107.692l-4.09564-.61529-0.48689,3.241,4.27334,0.642-0.29959,1.99422-6.58818-.98974,1.78421-11.87649,6.58818,0.98974Z"/><path class="cls-2" d="M61.63365,106.89061l5.02177,0.75442,0.69015-4.594,2.31388,0.34761-1.78421,11.87649-2.31388-.34761,0.79446-5.28831-5.02177-.75442-0.79446,5.28831-2.31484-.34776L60.009,101.94889l2.31484,0.34776Z"/><path class="cls-2" d="M75.92218,104.33954L78.237,104.6873l-0.69813,4.64707,1.85226,0.27827a4.15569,4.15569,0,0,1,2.77228,1.41783,3.56259,3.56259,0,0,1,.70514,2.81964,3.56042,3.56042,0,0,1-4.54611,2.99457L74.138,116.216Zm0.83023,10.23,1.353,0.20326c0.40947,0.06151,2.13715.32106,2.37784-1.28107,0.11244-.74844-0.14588-1.69774-1.85522-1.95453l-1.38871-.20863Zm10.70826-8.4966-1.78421,11.87649-2.31484-.34776,1.78421-11.87649Z"/><path class="cls-2" d="M25.25469,123.01952a4.7253,4.7253,0,0,1,2.79053,1.18455A3.122,3.122,0,0,1,28.78,126.8267a2.56377,2.56377,0,0,1-1.686,2.13158,2.82116,2.82116,0,0,1,1.43659.98115,3.06057,3.06057,0,0,1,.5204,2.35343,3.21035,3.21035,0,0,1-1.37608,2.25121,4.40349,4.40349,0,0,1-3.1537.50979l-3.98845-.59918L22.317,122.57818Zm-1.36382,4.83838,0.65862,0.09895a1.59026,1.59026,0,0,0,2.03089-1.27888,1.539,1.539,0,0,0-1.55525-1.76233l-0.677-.1017Zm-0.75979,5.0575,0.99759,0.14987a3.20291,3.20291,0,0,0,1.63292-.08254,1.54914,1.54914,0,0,0,.9361-1.26165,1.4384,1.4384,0,0,0-.66976-1.48413,3.81284,3.81284,0,0,0-1.54994-.46985l-0.85467-.1284Z"/><path class="cls-2" d="M50.62819,138.53844a6.2111,6.2111,0,0,1-3.0422.254,5.92342,5.92342,0,0,1-4.096-2.30894,5.98614,5.98614,0,0,1-1.22321-4.82709,6.278,6.278,0,0,1,2.60351-4.36083,6.1485,6.1485,0,0,1,4.5975-.91108,6.031,6.031,0,0,1,2.81067,1.16881l-0.40652,2.706a3.86186,3.86186,0,0,0-2.66563-1.7662,4.15261,4.15261,0,0,0-1.14434,8.222,3.63656,3.63656,0,0,0,2.97271-.88261Z"/><path class="cls-2" d="M67.44241,129.35738l-1.78421,11.87649-2.31484-.34776,1.48461-9.88227-4.77165-.71685-1.48461,9.88227-2.31484-.34776L58.04108,127.945Z"/><path class="cls-2" d="M73.70611,130.29838l6.87307,1.03254-0.29959,1.99422-4.55822-.68478-0.40927,2.72431,1.60214,0.24069a4.41473,4.41473,0,0,1,2.82993,1.40871,3.50121,3.50121,0,0,1,.72528,2.8039,3.738,3.738,0,0,1-.97693,2.01986,3.988,3.988,0,0,1-3.63527.92824l-3.93533-.59121Zm0.83023,10.23,1.10382,0.16583c1.85226,0.27827,2.33866-.5404,2.44036-1.21737,0.11229-.74747-0.166-1.682-1.92847-1.94677l-1.13956-.1712Z"/><path class="cls-2" d="M86.90046,141.821a1.40479,1.40479,0,1,1-1.59748,1.18105A1.384,1.384,0,0,1,86.90046,141.821Zm-0.94336-1.23392,1.24117-8.26178,2.20765,0.33166-1.24117,8.26178Z"/></svg>