<svg id="Layer_1" data-name="Layer 1" xmlns="http://www.w3.org/2000/svg" viewBox="0 0 36.50098 49.5"><defs><style>.cls-1,.cls-2,.cls-3{fill:#ffe600;}.cls-1{opacity:0.13;}.cls-2{opacity:0.31;}</style></defs><title>stamps</title><path class="cls-1" d="M18.125,49.5a3.9767,3.9767,0,0,1-3.39258-1.88086L2.88477,28.65234a4.00887,4.00887,0,0,1-.56152-1.51074,18.25145,18.25145,0,1,1,31.415.74023,3.97594,3.97594,0,0,1-.373.77051L21.51758,47.61914A3.9767,3.9767,0,0,1,18.125,49.5ZM18.25,16a2.25049,2.25049,0,1,0,2.251,2.25A2.25309,2.25309,0,0,0,18.25,16Z"/><path class="cls-2" d="M18.125,47.5a2.0003,2.0003,0,0,1-1.69629-.94043L4.58105,27.59277a1.9945,1.9945,0,0,1-.30371-1.06738A16.09245,16.09245,0,0,1,2,18.25a16.25049,16.25049,0,0,1,32.501,0,16.10382,16.10382,0,0,1-2.5918,8.78125,1.98644,1.98644,0,0,1-.24023.56152L19.82129,46.55957A2.0003,2.0003,0,0,1,18.125,47.5ZM18.25,14a4.25049,4.25049,0,1,0,4.251,4.25A4.25444,4.25444,0,0,0,18.25,14Z"/><path class="cls-3" d="M32.50061,18.25049A14.25045,14.25045,0,1,0,6.7251,26.60791l-0.44775-.07422L18.125,45.5,29.97266,26.53369l-0.16187.02686A14.1678,14.1678,0,0,0,32.50061,18.25049ZM18.25024,12a6.25049,6.25049,0,1,1-6.25049,6.25049A6.2577,6.2577,0,0,1,18.25024,12Z"/></svg>