<svg id="Layer_1" data-name="Layer 1" xmlns="http://www.w3.org/2000/svg" viewBox="0 0 36.5 49.5"><defs><style>.cls-1,.cls-2,.cls-3{fill:#ffe600;}.cls-1{opacity:0.13;}.cls-2{opacity:0.31;}</style></defs><title>point</title><path class="cls-1" d="M377.16,90.14a4,4,0,0,1-3.39-1.88l-11.85-19a4,4,0,0,1-.56-1.51,18.25,18.25,0,1,1,31.42.74,4,4,0,0,1-.37.77l-11.85,19A4,4,0,0,1,377.16,90.14Zm0.13-33.5a2.25,2.25,0,1,0,2.25,2.25A2.25,2.25,0,0,0,377.29,56.64Z" transform="translate(-359.04 -40.64)"/><path class="cls-2" d="M377.16,88.14a2,2,0,0,1-1.7-.94l-11.85-19a2,2,0,0,1-.3-1.07A16.09,16.09,0,0,1,361,58.89a16.25,16.25,0,0,1,32.5,0,16.1,16.1,0,0,1-2.59,8.78,2,2,0,0,1-.24.56l-11.85,19A2,2,0,0,1,377.16,88.14Zm0.13-33.5a4.25,4.25,0,1,0,4.25,4.25A4.25,4.25,0,0,0,377.29,54.64Z" transform="translate(-359.04 -40.64)"/><path class="cls-3" d="M391.54,58.89a14.25,14.25,0,1,0-25.78,8.36l-0.45-.07,11.85,19,11.85-19-0.16,0A14.17,14.17,0,0,0,391.54,58.89Zm-14.25-6.25A6.25,6.25,0,1,1,371,58.89,6.26,6.26,0,0,1,377.29,52.64Z" transform="translate(-359.04 -40.64)"/></svg>