<svg id="Layer_1" data-name="Layer 1" xmlns="http://www.w3.org/2000/svg" viewBox="0 0 97 117"><defs><style>.cls-1{fill:#dc143c;}</style></defs><title>stamps</title><path class="cls-1" d="M95.61768,79.69614a9.54372,9.54372,0,0,0-1.1046-10.21531,14.421,14.421,0,0,0-4.54354-3.4752A9.36538,9.36538,0,0,0,85.13717,65H66.98224a54.29974,54.29974,0,0,0,1.70657-10.58164,26.28878,26.28878,0,0,0-1.32953-10.28014,17.18655,17.18655,0,0,0-5.7202-8.00146,7.81441,7.81441,0,0,0-4.75341-1.72559,7.936,7.936,0,0,0-4.9671,1.83379,4.95854,4.95854,0,0,0-1.91419,4.34389L50.057,41.29139c0.11908,1.42056.20071,2.57348,0.222,3.71061a17.01176,17.01176,0,0,1-1.07489,7.0904A51.668,51.668,0,0,1,43.042,63.26105a35.07058,35.07058,0,0,1-7.67958,7.609A5.4374,5.4374,0,0,0,29.74087,66H6.14128A5.52575,5.52575,0,0,0,.40769,71.8459c-0.00832,12.89741-.00832,25.86623,0,38.758a5.507,5.507,0,0,0,5.5447,5.68123c0.21,0.00325.41058,0.0215,0.61113,0.0215l0.55746-.15339L7.63923,116H29.78265a5.2986,5.2986,0,0,0,5.56966-4.51355,11.63672,11.63672,0,0,0,6.37194,2.20168c0.21328,0.01206.44537,0.05782,0.67754,0.05782,0.50686,0,.97886-0.00746,1.3951-0.03175l0.1532,0.00118,0.25272,0.15292A7.902,7.902,0,0,1,45.036,114h1.72263c4.54612,0,9.15747-.17056,13.793-0.17056,6.63631,0,12.10153-.07388,17.19945-0.0574a14.07633,14.07633,0,0,0,5.59346-1.221,8.93614,8.93614,0,0,0,5.49227-6.2705,11.49916,11.49916,0,0,0,.324-3.29752,8.71211,8.71211,0,0,0,3.21643-4.97245,16.89414,16.89414,0,0,0,.43663-6.02931,8.389,8.389,0,0,0,2.87192-5.39194,13.4804,13.4804,0,0,0-.55221-5.88884C95.30462,80.37531,95.46631,80.03931,95.61768,79.69614ZM31.40145,85.78872v24.87295c0,0.98193-.64518,1.33834-1.61888,1.33834H7.63915c-0.36057,0-.71756.08351-1.07572,0.08351-0.179,0-.35841.039-0.53882,0.03614a1.31508,1.31508,0,0,1-1.45626-1.4696c-0.00832-12.89-.00832-25.99612,0-38.89445,0-1.13172.4244-1.7556,1.57285-1.7556H29.74088a1.72424,1.72424,0,0,1,1.66057,1.9667v13.822ZM91.811,78.01644a11.505,11.505,0,0,1-.89881,1.6643,1.26458,1.26458,0,0,0-.09978,1.3148,9.65027,9.65027,0,0,1,.74885,5.04283,4.31429,4.31429,0,0,1-2.28009,3.36189c-0.13306.07489-.258,0.14146-0.35774,0.19971-0.5825.31621-.64075,0.37446-0.516,0.94865,0.025,0.13315.06666,0.3079,0.09994,0.53258a13.87342,13.87342,0,0,1-.1497,5.85,4.22234,4.22234,0,0,1-2.96253,3.32028,1.20834,1.20834,0,0,0-.80719.4244,1.38377,1.38377,0,0,0,.13306.97361,6.52594,6.52594,0,0,1,.06666,3.65314,5.14189,5.14189,0,0,1-3.07055,3.61356A10.32109,10.32109,0,0,1,77.7892,110H77.7644c-5.71329,0-11.48126-.01581-17.21285-0.01581-4.63674,0-9.24934.01581-13.793,0.01581H45.03587c-0.441,0-.89048-0.21007-1.3232-0.18509-0.43114.02463-.87176-0.06784-1.311-0.06784-0.1542,0-.308-0.06442-0.46134-0.07306a6.91979,6.91979,0,0,1-5.95836-3.34238,1.41193,1.41193,0,0,1-.208-0.70589q-0.01248-7.352-.01664-14.71169,0-7.352-.00816-14.70789a0.71551,0.71551,0,0,1,.40775-0.69259,38.98733,38.98733,0,0,0,10.21863-9.76207,55.72613,55.72613,0,0,0,6.66552-12.05,20.90992,20.90992,0,0,0,1.39818-8.77942c-0.025-1.32312-.12491-2.65468-0.233-3.94451l-0.05-.66578a0.80992,0.80992,0,0,1,.33278-0.80722,3.87938,3.87938,0,0,1,2.39667-.957,3.69277,3.69277,0,0,1,2.23008.84879,12.94022,12.94022,0,0,1,4.32718,6.04972,21.75272,21.75272,0,0,1,1.0902,8.57114,44.7939,44.7939,0,0,1-3.10392,14.10494c-0.03329.09154-.05833,0.28912-0.09145,0.3973L61.2295,69H85.13707a5.34165,5.34165,0,0,1,2.76282.53471,11.17044,11.17044,0,0,1,3.35356,2.59322A5.26572,5.26572,0,0,1,91.811,78.01644Z"/><path class="cls-1" d="M45.48732,19.41613l0.01465-.01465c2.25263,1.945,7.10623.222,11.44555-4.11731S63.00989,6.09133,61.06483,3.8387l0.01465-.01465L59.1959,1.94048c-2.17566-2.17574-7.16764-.46484-11.61223,3.97976s-6.15558,9.43658-3.97992,11.61232ZM49.14911,7.48585c3.80317-3.80326,7.56374-4.8972,8.481-3.97984s-0.17658,4.67776-3.97976,8.481-7.56374,4.89712-8.4811,3.97976S45.34593,11.2891,49.14911,7.48585Z"/></svg>